<?xml version="1.0" standalone="no"?><!DOCTYPE svg PUBLIC "-//W3C//DTD SVG 1.1//EN" "http://www.w3.org/Graphics/SVG/1.1/DTD/svg11.dtd"><svg t="1561808266132" class="icon" viewBox="0 0 1024 1024" version="1.1" xmlns="http://www.w3.org/2000/svg" p-id="1135" xmlns:xlink="http://www.w3.org/1999/xlink" width="16" height="16"><defs><style type="text/css"></style></defs><path d="M611.413333 853.333333h-8.96a85.333333 85.333333 0 0 1-75.093333-67.413333L413.013333 256l-117.76 273.066667A42.666667 42.666667 0 0 1 256 554.666667H128a42.666667 42.666667 0 0 1 0-85.333334h99.84l107.093333-247.04a85.333333 85.333333 0 0 1 161.706667 16.213334L610.986667 768l117.76-272.213333A42.666667 42.666667 0 0 1 768 469.333333h128a42.666667 42.666667 0 0 1 0 85.333334h-99.84l-107.093333 247.04A85.333333 85.333333 0 0 1 611.413333 853.333333z" fill="#000000" p-id="1136"></path></svg>