<?xml version="1.0" encoding="utf-8"?>
<!-- Svg Vector Icons : http://www.onlinewebfonts.com/icon -->
<!DOCTYPE svg PUBLIC "-//W3C//DTD SVG 1.1//EN" "http://www.w3.org/Graphics/SVG/1.1/DTD/svg11.dtd">
<svg version="1.1" xmlns="http://www.w3.org/2000/svg" xmlns:xlink="http://www.w3.org/1999/xlink" x="0px" y="0px" viewBox="0 0 1000 1000" enable-background="new 0 0 1000 1000" xml:space="preserve">
<metadata> Svg Vector Icons : http://www.onlinewebfonts.com/icon </metadata>
<g><path d="M404.9,368.3c0,25.2,8.9,46.6,26.6,64.4c17.7,17.7,39.2,26.6,64.4,26.6c25.2,0,46.6-8.9,64.4-26.6c17.7-17.7,26.6-39.2,26.6-64.4c0-25.2-8.9-46.6-26.6-64.4c-17.7-17.7-39.2-26.6-64.4-26.6c-25.2,0-46.6,8.9-64.4,26.6C413.7,321.7,404.9,343.1,404.9,368.3z"/><path d="M978.6,168.7c-7.6-7.6-16.8-11.4-27.6-11.4c-10.8,0-20,3.8-27.6,11.4l-92.6,92.6H681.3l-92.6-92.6c-7.6-7.6-16.8-11.4-27.6-11.4c-10.8,0-20,3.8-27.6,11.4c-7.6,7.6-11.4,16.8-11.4,27.6s3.8,20,11.4,27.6l118.6,118.6v48.3l11.1-11.1c7.6-7.6,16.8-11.4,27.6-11.4c10.8,0,20,3.8,27.6,11.4c7.6,7.6,11.4,16.8,11.4,27.6c0,10.8-3.8,20-11.4,27.6l-66.3,66.3v175.9c0,12.4,4.5,23.1,13.4,32.1c8.9,8.9,19.6,13.4,32.1,13.4c12.4,0,23.1-4.5,32.1-13.4c8.9-8.9,13.4-19.6,13.4-32.1v-156h26v155.9c0,12.4,4.5,23.1,13.4,32.1c8.9,8.9,19.6,13.4,32.1,13.4s23.1-4.5,32.1-13.4c8.9-8.9,13.4-19.6,13.4-32.1V342.5l118.6-118.6c7.6-7.6,11.4-16.8,11.4-27.6C990,185.5,986.2,176.3,978.6,168.7z"/><path d="M756,248.3c25.2,0,46.6-8.9,64.4-26.6c17.7-17.7,26.6-39.2,26.6-64.4c0-25.2-8.9-46.6-26.6-64.4c-17.7-17.7-39.2-26.6-64.4-26.6c-25.2,0-46.6,8.9-64.4,26.6c-17.7,17.7-26.6,39.2-26.6,64.4c0,25.2,8.9,46.6,26.6,64.4C709.4,239.4,730.9,248.3,756,248.3z"/><path d="M391.9,712.3v175.9c0,12.4,4.5,23.1,13.4,32.1c8.9,8.9,19.6,13.4,32.1,13.4s23.1-4.5,32.1-13.4c8.9-8.9,13.4-19.6,13.4-32.1V732.2h26v155.9c0,12.4,4.5,23.1,13.4,32.1c8.9,8.9,19.6,13.4,32.1,13.4s23.1-4.5,32.1-13.4c8.9-8.9,13.4-19.6,13.4-32.1V553.5l118.6-118.6c7.6-7.6,11.4-16.8,11.4-27.6c0-10.8-3.8-20-11.4-27.6c-7.6-7.6-16.8-11.4-27.6-11.4c-10.8,0-20,3.8-27.6,11.4l-92.6,92.6H421.1l-92.6-92.6c-7.6-7.6-16.8-11.4-27.6-11.4c-10.8,0-20,3.8-27.6,11.4c-7.6,7.6-11.4,16.8-11.4,27.6s3.8,20,11.4,27.6l118.6,118.6V712.3"/><path d="M495.9,459.3c25.2,0,46.6-8.9,64.4-26.6c17.7-17.7,26.6-39.2,26.6-64.4c0-25.2-8.9-46.6-26.6-64.4c-17.7-17.7-39.2-26.6-64.4-26.6c-25.2,0-46.6,8.9-64.4,26.6c-17.7,17.7-26.6,39.2-26.6,64.4c0,25.2,8.9,46.6,26.6,64.4C449.2,450.4,470.7,459.3,495.9,459.3z"/><path d="M243.9,273.4c25.2,0,46.6-8.9,64.4-26.6c17.7-17.7,26.6-39.2,26.6-64.4c0-25.2-8.9-46.6-26.6-64.4c-17.7-17.7-39.2-26.6-64.4-26.6c-25.2,0-46.6,8.9-64.4,26.6c-17.7,17.7-26.6,39.2-26.6,64.4c0,25.2,8.9,46.6,26.6,64.4C197.3,264.6,218.8,273.4,243.9,273.4z"/><path d="M261.9,407.3c0-10.8,3.8-20,11.4-27.6c7.6-7.6,16.8-11.4,27.6-11.4c10.8,0,20,3.8,27.6,11.4l19.4,19.4v-31.4L466.5,249c7.6-7.6,11.4-16.8,11.4-27.6s-3.8-20-11.4-27.6c-7.6-7.6-16.8-11.4-27.6-11.4s-20,3.8-27.6,11.4l-92.6,92.6H169.2l-92.6-92.6c-7.6-7.6-16.8-11.4-27.6-11.4s-20,3.8-27.6,11.4c-7.6,7.6-11.4,16.8-11.4,27.6s3.8,20,11.4,27.6L140,367.7v334.6c0,12.4,4.5,23.1,13.4,32.1c8.9,8.9,19.6,13.4,32.1,13.4c12.4,0,23.1-4.5,32.1-13.4c8.9-8.9,13.4-19.6,13.4-32.1V546.3h26v155.9c0,12.4,4.5,23.1,13.4,32.1c8.9,8.9,19.6,13.4,32.1,13.4c12.4,0,23.1-4.5,32.1-13.4c8.9-8.9,13.4-19.6,13.4-32.1V509.5l-74.6-74.6C265.7,427.4,261.9,418.1,261.9,407.3z"/></g>
</svg>